# xmcd
# 
# Track frame offsets:
#     150
#     13990
#     28840
#     46532
#     59092
#     72662
#     87837
#     110692
#     127895
#     142860
#     161342
#     177442
#     197882
#     208782
# 
# Disc length: 2937
# 
# Revision: 1
# Processed by: cddbd v1.5.2PL0 Copyright (c) Steve Scherf et al.
# Submitted via: BonkEnc v1.0.5
# 
DISCID=cb0b770e
DTITLE=憂歌団 - Blues 1973-1975
DYEAR=0
DGENRE=
TTITLE0=Please Find My Baby
TTITLE1=Key To The Highway
TTITLE2=It Hurs Me Too
TTITLE3=Kind Hearted Woman
TTITLE4=King Fish Blues
TTITLE5=I Can'tBe Satisfied
TTITLE6=Careless Love
TTITLE7=Please Find My Baby
TTITLE8=Walkin' Blues
TTITLE9=Shake Your Money MAker
TTITLE10=Look On Yonder Wall
TTITLE11=Rollin' and Tumblin'
TTITLE12=Good Morning Little School Girl
TTITLE13=Take A Little Walk With Me
EXTD=
EXTT0=
EXTT1=
EXTT2=
EXTT3=
EXTT4=
EXTT5=
EXTT6=
EXTT7=
EXTT8=
EXTT9=
EXTT10=
EXTT11=
EXTT12=
EXTT13=
PLAYORDER=
